<?xml version="1.0" encoding="utf-8"?>
<!-- Generator: Adobe Illustrator 16.0.0, SVG Export Plug-In . SVG Version: 6.00 Build 0)  -->
<!DOCTYPE svg PUBLIC "-//W3C//DTD SVG 1.1//EN" "http://www.w3.org/Graphics/SVG/1.1/DTD/svg11.dtd">
<svg version="1.1" id="Layer_1" xmlns="http://www.w3.org/2000/svg" xmlns:xlink="http://www.w3.org/1999/xlink" x="0px" y="0px"
	 width="1167px" height="736px" viewBox="0 0 1167 736" enable-background="new 0 0 1167 736" xml:space="preserve">
<image overflow="visible" enable-background="new    " width="1167" height="736" xlink:href="../../assets/nationalstadium.jpg"  transform="matrix(0.9293 0 0 0.9293 40.7939 26.019)">
</image>
<style xmlns="http://www.w3.org/2000/svg">
        path, polygon, polyline {
			opacity: 0%;
        }

        path:hover, polygon:hover, polyline:hover {
			fill: black;
			opacity: 50%;
			cursor: pointer;
        }
</style>
<path id="sPH5" d="M387.833,529.001v3.833c0,0,9.083,9.667,32.417,11.25c18.431-12.7,39.333-27.417,39.333-27.417v-4.583
	l-27.083-15.25L387.833,529.001z"/>
<path id="s606" d="M559.667,673.5c0.424,7.124,6.167,14.646,6.167,27.5c-24.006,3.254-50.167,3.168-50.167,3.168
	c-0.763-4.008-0.497-2.809-0.847-4.667c-0.349-1.856,1.68-21.666,1.68-21.666S540.674,674.374,559.667,673.5z"/>
<polygon id="s607" points="570.333,699.668 631.203,691.084 631.203,686.593 616,658.835 564.333,671.335 "/>
<polygon id="s608" points="621,657.999 621,662.666 633.666,688.834 694.166,675.165 694.166,670.832 671.5,641.332 "/>
<path id="s609_2_" d="M677.5,638.938v5.685c0,0,17.083,13.467,26.583,27.842c22-6,58.917-18.627,58.917-18.627l-0.125-4.709
	l-38.125-30.753L677.5,638.938z"/>
<path id="s610" d="M770.984,651.464c0,0,29.04-8.134,54.517-21.299c0-3.098,0-4.337,0-4.337l-50.25-35.333l-44.834,24.482v5.186
	L770.984,651.464z"/>
<polygon id="s611" points="830.637,627.75 883.667,601.75 883.667,598.167 826.334,560.417 780.001,588.417 780.001,592.25 "/>
<polygon id="s612" points="888.501,599 931.168,571.333 931.168,566.333 872.668,532 830.125,559.125 830.125,562.375 "/>
<polygon id="s613" points="938.168,567 981.335,536.807 981.335,532.833 924.668,503.5 883.667,531.887 883.667,535.961 "/>
<polygon id="s614" points="984.75,534.25 1026.5,502.125 1026.5,496.75 960.625,468.25 921.125,497.25 921.125,500.875 "/>
<path id="s615" d="M1030,497.625c15.333-11.923,30.375-31.563,30.375-31.563V460.5l-58.625-26l-36.375,30.334l-0.139,4.627
	C965.236,469.463,1012.236,488.878,1030,497.625z"/>
<polygon id="s616" points="1063.5,459.625 1091.25,425.25 1091.25,421.5 1039.5,400.625 1004.375,431.5 1004.375,434.5 "/>
<path id="s617" d="M1094.75,421l21.875-36.75v-4.75L1069,368c0,0-12.287,20.104-27,30.25c0,1.381,0,2.375,0,2.375L1094.75,421z"/>
<path id="s405_2_" d="M444.5,635.875l-7,29.208v4.575c0,0,25.416,0.232,38.916-2.304c1-9.875,3.084-32.729,3.084-32.729
	L444.5,635.875z"/>
<path id="s406" d="M484.5,633.625l-3.375,27.625v4.625c0,0,25-0.792,59.75-6.125c-3-15.21-6.75-31.875-6.75-31.875L484.5,633.625z"
	/>
<path id="s407" d="M538.75,626.875v4.625l6.875,26.125c0,0,15.16-0.375,52.143-10.75c-0.268-3.75-0.518-2.75-0.518-2.75L583.5,616.5
	L538.75,626.875z"/>
<path id="s408" d="M588.375,615.125v3.25l13.875,26.5c0,0,7.167-1.375,49.792-15c-0.313-2.016-0.541-4.083-0.541-4.083
	s-9.376-14.292-17.876-25.917C606.25,610.25,588.375,615.125,588.375,615.125z"/>
<path id="s409" d="M638,599.021v5.354l18.667,23.5c0,0,32.999-13.042,47.166-21.708c-0.333-3.5-0.333-3.5-0.333-3.5l-24.875-22.792
	C678.625,579.875,662.365,589.742,638,599.021z"/>
<path id="s410" d="M682.5,578.375V581l25.5,22.875c0,0,34.625-19.625,48.5-26.75c0-3.25,0-3.25,0-3.25l-24.125-22L682.5,578.375z"/>
<polygon id="s411" points="735.375,550.125 735.375,551.875 760.5,575.5 805.875,549 805.875,545.625 777,525.625 "/>
<polygon id="s412_2_" points="820.75,496.375 852.25,517.125 852.25,520.75 809.25,547 779.375,526.375 779.375,523.25 "/>
<path id="s413" d="M823,494.75c0,3.107,0,3.107,0,3.107l32.75,20.518l40.625-29.75v-2.875L864,467.625
	C864,467.625,836.25,488.125,823,494.75z"/>
<polygon id="s414" points="867.375,465.25 867.375,468.25 900,486.625 939.625,456.875 939.625,453.75 903.875,436.5 "/>
<polygon id="s415" points="906.625,434.5 906.625,436.5 941.75,454 977.5,426.25 977.5,422 941.375,405.375 "/>
<path id="s416" d="M944.625,403v2.375L980,423.25c0,0,22.375-19,37.375-33.625c-0.375-2.875,0-3.25,0-3.25l-41.25-13.125
	L944.625,403z"/>
<path id="s417" d="M979.625,370.125v2.625l40.375,13.5c0,0,13.438-10.875,27.813-30.75c-0.063-2.75,0-3.375,0-3.375l-43.438-10
	L979.625,370.125z"/>
<path id="s107b" d="M559.5,544.084v1.874l20,59.042c0,0,0.875,0.625,21.125-5.125c0-3,0-3,0-3l-28-56L559.5,544.084z"/>
<path id="s107a" d="M505.875,554.875l20.5,58.125v3.5c0,0-6.5,1.625-15.375,3.625c-4.25-21.375-13.875-63.625-13.875-63.625"/>
<polygon id="s109" points="601.417,531.084 601.417,534.501 643.833,584.667 677.083,569.417 677.083,566.333 622.083,521.084 "/>
<path id="s110" d="M626.5,519.5v2.188l54.334,45.479c0,0,25.75-13.563,40.916-22.229c0-1.078,0-0.969,0-2.166
	c-12.083-9.688-59.25-44.271-59.25-44.271"/>
<polygon id="s111" points="667.833,496.375 667.833,498.5 726.316,541.288 765.167,518.996 765.167,514.996 702.5,474.83 "/>
<path id="s112" d="M708.5,471.328v3.502l62.125,40.498c0,0,17.875-12.667,36.875-23.667c0.167-3.166,0.002-4,0.002-4L741,449.161
	C741,449.161,722.833,464.494,708.5,471.328z"/>
<polygon id="s113_2_" points="746.875,446.5 746.875,450.75 812.5,487.75 847.375,463.5 847.375,458.875 778.5,423.75 "/>
<path id="s114" d="M782.375,422v1.75l69.875,36.75L884,435.125v-3.5c0,0-52-24.875-71.375-33.5
	C798.529,410.344,782.375,422,782.375,422z"/>
<path id="s115" d="M817.25,395.125v3.125l72.25,33.625l31-26.5v-3.563l-74.875-30.063C836.375,381.25,817.25,395.125,817.25,395.125
	z"/>
<polygon points="849.625,367.375 849.625,370 924.875,400.625 955.25,373.25 955.25,370.75 877.25,342.125 "/>
<path d="M880,338.5v2.25L959.125,370c0,0,10.25-12.125,20.5-23.25c0-3.125,0-4.25,0-4.25L892,324.125L880,338.5z"/>
<path id="s106" d="M471.001,561.167v59.667l0.167,4.5c0,0,22.167,0.333,34.5-4c0.167-1.5,0-3,0-3l-13.667-60.333L471.001,561.167z"
	/>
<path id="s105" d="M466.104,625.979l1.897-64.313c0,0-15.333,1.166-21.833,1c-2.167,9.167-14.5,59-14.5,59v4.834L466.104,625.979z"
	/>
<path id="s104" d="M442.75,563.125v5.71l-18.125,57.666c0,0-24.361,1.382-34.736-0.583c-0.25-1.59,0.111-3.293,0.111-3.293
	l32.417-59.707C431.667,563.683,442.75,563.125,442.75,563.125z"/>
<path id="s103" d="M417.063,562.918v6.75L385.25,625.34c0,0-27.5-2.59-35-5.34c0-1.625,0-3.375,0-3.375L397,560.501
	C405.667,563.667,417.063,562.918,417.063,562.918z"/>
<path id="s102" d="M395,559.875c-12-0.875-20.75-5.25-20.75-5.25L315.875,607v4.375c0,0,23.375,7.5,30.5,7.875
	C346.625,617,395,559.875,395,559.875z"/>
<path d="M358.667,547.834l-37.167,26.5l-6.5-2.833l-31.5,22.583v4.583c0,0,18.046,8.621,28.083,11.666
	c2.083-0.666,2.5-0.499,2.5-0.499l0.25-3.167l58-52.792L358.667,547.834z"/>
</svg>
